<svg width="48" height="48" viewBox="0 0 48 48" fill="none" xmlns="http://www.w3.org/2000/svg">
<path d="M1.05528 0.0756239C1.6253 0.345635 2.19532 0.630647 2.75035 0.900658C5.39046 2.17571 8.01556 3.46576 10.6557 4.74082C14.3158 6.51089 17.961 8.29596 21.6211 10.066C25.0413 11.7311 28.4614 13.3962 31.8815 15.0462C34.4916 16.3213 37.1018 17.6563 39.8019 18.7364C37.8818 18.3464 35.8567 18.9314 34.0866 19.6814C32.5566 20.3415 31.0865 21.1515 29.5714 21.8565C27.9214 22.6215 26.0163 22.6215 24.3512 21.8865L9.32062 15.2112C3.65038 12.7061 -0.00976562 7.02091 -0.00976562 0.750652C-0.00976562 0.195629 0.560258 -0.164386 1.05528 0.0756239Z" fill="url(#paint0_linear_65_51)"/>
<path d="M46.9422 25.7567L6.4405 45.5425L1.6553 47.8826C0.890271 48.2576 -0.00976562 47.6876 -0.00976562 46.8325V45.1975C-0.00976562 40.6223 2.49534 36.4521 6.4405 34.322C6.71051 34.172 6.98052 34.052 7.25053 33.917L29.0914 24.0016L35.9917 20.9115C36.5017 20.6865 37.0268 20.5065 37.5668 20.3715C38.6168 20.1014 39.6969 20.0114 40.7769 20.1014C41.962 20.2064 43.117 20.5215 44.212 21.0465L46.9422 22.3665C48.3522 23.0566 48.3522 25.0816 46.9422 25.7567Z" fill="url(#paint1_linear_65_51)"/>
<defs>
<linearGradient id="paint0_linear_65_51" x1="19.8961" y1="22.4415" x2="19.8961" y2="0.000620639" gradientUnits="userSpaceOnUse">
<stop stop-color="#3547FF"/>
<stop offset="1" stop-color="#8903FF"/>
</linearGradient>
<linearGradient id="paint1_linear_65_51" x1="-1.41982" y1="45.0025" x2="45.0821" y2="20.2514" gradientUnits="userSpaceOnUse">
<stop stop-color="#8903FF"/>
<stop offset="1" stop-color="#3547FF"/>
</linearGradient>
</defs>
</svg>
