<svg width="497.05" height="472.81" fill="#000000" version="1.1" viewBox="-5 0 19.882 18.912" xmlns="http://www.w3.org/2000/svg">
 <title>star</title>
 <path d="m4.9398 1.632e-4c-0.21435 3.85e-5 -2.6515 6.4368-2.8248 6.5628-0.17339 0.12602-7.0481 0.45723-7.1143 0.66109-0.0662 0.20387 5.3024 4.5108 5.3687 4.7146 0.066274 0.20384-1.7431 6.8444-1.5697 6.9704 0.17343 0.12596 5.9285-3.649 6.1429-3.6491 0.21435-3.8e-5 5.9708 3.7728 6.1441 3.6468 0.17339-0.12602-1.6384-6.7659-1.5722-6.9698s5.4332-4.5126 5.367-4.7165c-0.06627-0.20384-6.941-0.53263-7.1145-0.65859-0.17343-0.12596-2.6128-6.5618-2.8272-6.5618zm3.907e-4 2.2827c0.16754-3.01e-5 2.0742 5.0303 2.2098 5.1287 0.13556 0.098451 5.509 0.35536 5.5608 0.51469s-4.1432 3.5271-4.1949 3.6865c-0.05174 0.15934 1.3643 5.3492 1.2288 5.4477-0.13552 0.0985-4.6348-2.8504-4.8023-2.8504-2.759e-4 -1e-6 -0.00181 8.43e-4 -0.00211 8.59e-4z" fill="#fa8506" stroke="#fa8506" stroke-linejoin="round" stroke-width=".0001264"/>
</svg>
