<svg width="497.05" height="472.8" fill="#000000" version="1.1" viewBox="-5 0 19.882 18.912" xmlns="http://www.w3.org/2000/svg">
 <title>star</title>
 <path d="m4.9398 1.932e-4c-0.21435 3.83e-5 -2.6514 6.4368-2.8248 6.5628-0.17339 0.12602-7.0481 0.45722-7.1143 0.66109s5.3024 4.5108 5.3687 4.7146c0.066273 0.20384-1.7431 6.8444-1.5697 6.9703 0.17343 0.12596 5.9285-3.6489 6.1428-3.649 0.21435-3.9e-5 5.9708 3.7728 6.1442 3.6468s-1.6384-6.7659-1.5722-6.9698 5.4332-4.5127 5.367-4.7166c-0.06627-0.20384-6.9411-0.53256-7.1145-0.65852-0.17343-0.12596-2.6128-6.5618-2.8272-6.5618zm4.686e-4 2.2827c0.16754-3e-5 2.0742 5.0302 2.2098 5.1287s5.5089 0.35544 5.5607 0.51477-4.1431 3.5271-4.1948 3.6865c-0.05174 0.15935 1.3644 5.3492 1.2288 5.4477-0.13552 0.0985-4.6348-2.8504-4.8023-2.8504s-4.6658 2.9506-4.8013 2.8521c-0.13556-0.09845 1.2787-5.2888 1.2269-5.4481-0.0518-0.15933-4.2479-3.5256-4.1962-3.6849 0.051743-0.15934 5.425-0.41822 5.5605-0.51672 0.13552-0.0985 2.0404-5.1295 2.208-5.1295z" fill="#fa8506" stroke="#fa8506" stroke-linejoin="round" stroke-width=".0001264"/>
</svg>
