<svg width="497.05" height="472.8" fill="#000000" version="1.1" viewBox="-5 0 19.882 18.912" xmlns="http://www.w3.org/2000/svg">
 <title>star</title>
 <path d="m11.087 18.906c-0.17339 0.12602-5.9296-3.6468-6.144-3.6468-0.21442 4.5e-5 -5.9693 3.775-6.1427 3.6492-0.17343-0.12596 1.6359-6.7663 1.5696-6.9702-0.066273-0.20384-5.4347-4.5106-5.3688-4.7146 0.0662-0.20387 6.9408-0.53508 7.1142-0.66109 0.17343-0.12601 2.6105-6.5625 2.8248-6.5628 0.21435-3.7752e-5 2.6537 6.4356 2.827 6.5615 0.17343 0.12596 7.048 0.45472 7.1146 0.65862 0.06627 0.20384-5.3007 4.5127-5.3669 4.7163-0.0662 0.20386 1.7455 6.8437 1.5722 6.9696z" fill="#fa8506" stroke="#fa8506" stroke-linejoin="round" stroke-width=".0001264"/>
</svg>
