<svg width="48" height="48" viewBox="0 0 48 48" fill="none" xmlns="http://www.w3.org/2000/svg">
<mask id="mask0_67_154" style="mask-type:alpha" maskUnits="userSpaceOnUse" x="0" y="0" width="48" height="48">
<rect width="48" height="48" fill="#D9D9D9"/>
</mask>
<g mask="url(#mask0_67_154)">
<path d="M7 40C6.2 40 5.5 39.7 4.9 39.1C4.3 38.5 4 37.8 4 37V11C4 10.2 4.3 9.5 4.9 8.9C5.5 8.3 6.2 8 7 8H41C41.8 8 42.5 8.3 43.1 8.9C43.7 9.5 44 10.2 44 11V37C44 37.8 43.7 38.5 43.1 39.1C42.5 39.7 41.8 40 41 40H7ZM7 37H41V11H7V37ZM13.5 30.5H28.5C28.925 30.5 29.2813 30.3553 29.569 30.066C29.8563 29.777 30 29.4187 30 28.991C30 28.5637 29.8563 28.2083 29.569 27.925C29.2813 27.6417 28.925 27.5 28.5 27.5H13.5C13.075 27.5 12.7188 27.6447 12.4315 27.934C12.1438 28.223 12 28.5813 12 29.009C12 29.4363 12.1438 29.7917 12.4315 30.075C12.7188 30.3583 13.075 30.5 13.5 30.5ZM19.5 24.5H34.5C34.925 24.5 35.2813 24.3553 35.569 24.066C35.8563 23.777 36 23.4187 36 22.991C36 22.5637 35.8563 22.2083 35.569 21.925C35.2813 21.6417 34.925 21.5 34.5 21.5H19.5C19.075 21.5 18.7188 21.6447 18.4315 21.934C18.1438 22.223 18 22.5813 18 23.009C18 23.4363 18.1438 23.7917 18.4315 24.075C18.7188 24.3583 19.075 24.5 19.5 24.5ZM13.509 24.5C13.9363 24.5 14.2917 24.3553 14.575 24.066C14.8583 23.777 15 23.4187 15 22.991C15 22.5637 14.8553 22.2083 14.566 21.925C14.277 21.6417 13.9187 21.5 13.491 21.5C13.0637 21.5 12.7083 21.6447 12.425 21.934C12.1417 22.223 12 22.5813 12 23.009C12 23.4363 12.1447 23.7917 12.434 24.075C12.723 24.3583 13.0813 24.5 13.509 24.5ZM34.509 30.5C34.9363 30.5 35.2917 30.3553 35.575 30.066C35.8583 29.777 36 29.4187 36 28.991C36 28.5637 35.8553 28.2083 35.566 27.925C35.277 27.6417 34.9187 27.5 34.491 27.5C34.0637 27.5 33.7083 27.6447 33.425 27.934C33.1417 28.223 33 28.5813 33 29.009C33 29.4363 33.1447 29.7917 33.434 30.075C33.723 30.3583 34.0813 30.5 34.509 30.5Z" fill="white"/>
</g>
</svg>
